<?xml version="1.0" encoding="UTF-8"?>
<svg width="420" height="260" viewBox="0 0 420 260" fill="none" xmlns="http://www.w3.org/2000/svg">
  <rect width="420" height="260" rx="18" fill="#181818"/>
  <!-- Gauge Arc -->
  <path d="M70,180 A140,140 0 0,1 350,180" stroke="#ffd600" stroke-width="18" fill="none"/>
  <path d="M90,180 A120,120 0 0,1 330,180" stroke="#8bc3ff" stroke-width="12" fill="none"/>
  <!-- Ticks -->
  <g stroke="#fff" stroke-width="2">
    <line x1="70" y1="180" x2="80" y2="170"/>
    <line x1="110" y1="110" x2="120" y2="120"/>
    <line x1="210" y1="60" x2="210" y2="75"/>
    <line x1="310" y1="110" x2="300" y2="120"/>
    <line x1="350" y1="180" x2="340" y2="170"/>
  </g>
  <!-- Needle -->
  <polygon points="210,180 205,100 215,100" fill="#ff6666"/>
  <!-- Labels -->
  <g font-family="'Segoe UI', Arial, sans-serif" font-size="15" text-anchor="middle">
    <text x="210" y="210" fill="#fff">Projected Failure Rate</text>
    <text x="210" y="235" fill="#b48be0" font-size="13">Lower is better</text>
    <text x="70" y="195" fill="#fff" font-size="12">High</text>
    <text x="210" y="55" fill="#fff" font-size="12">Low</text>
    <text x="350" y="195" fill="#fff" font-size="12">High</text>
    <text x="210" y="90" fill="#ffd600" font-size="16">↓</text>
    <text x="210" y="120" fill="#ffd600" font-size="16">40%</text>
  </g>
</svg>
